<?xml version="1.0" standalone="no"?><!DOCTYPE svg PUBLIC "-//W3C//DTD SVG 1.1//EN" "http://www.w3.org/Graphics/SVG/1.1/DTD/svg11.dtd"><svg t="1614231021518" class="icon" viewBox="0 0 1024 1024" version="1.1" xmlns="http://www.w3.org/2000/svg" p-id="8133" xmlns:xlink="http://www.w3.org/1999/xlink" width="200" height="200"><defs><style type="text/css"></style></defs><path d="M465.506083 573.617359c-13.744026 0-26.662243-5.349845-36.369326-15.062044L228.16863 357.570815c-7.178493-7.173376-11.133571-16.72287-11.133571-26.868951 0-10.135848 3.955078-19.685341 11.133571-26.879184 7.188726-7.173376 16.733103-11.123338 26.879184-11.123338 10.140964 0 19.679202 3.949962 26.862811 11.123338l183.599552 183.599552L856.171644 96.761788c7.188726-7.173376 16.733103-11.133571 26.879184-11.133571s19.690458 3.961218 26.879184 11.133571c14.802124 14.823614 14.802124 38.924521 0 53.748135L501.880525 558.555315C492.168326 568.267515 479.250108 573.617359 465.506083 573.617359z" p-id="8134"></path><path d="M128.040165 816.814264c-16.473183 0-31.963992-6.41306-43.60717-18.057261-11.654434-11.654434-18.073634-27.140127-18.073634-43.61331l0-625.75174c0-16.461927 6.424316-31.94762 18.078751-43.602054 11.649318-11.644201 27.128871-18.068518 43.602054-18.068518l433.790754 0c20.954241 0 38.007639 17.048281 38.007639 38.002522s-17.053398 38.013779-38.007639 38.013779L142.380778 143.737682l0 597.059258 570.863642 0L713.24442 465.523479c0-21.182438 17.237593-38.426171 38.426171-38.426171s38.431288 17.243733 38.431288 38.426171l0 289.620213c0 16.473183-6.424316 31.957853-18.078751 43.61331-11.638061 11.644201-27.128871 18.057261-43.60717 18.057261L128.040165 816.814264z" p-id="8135"></path><path d="M319.990918 960.957175c-20.954241 0-38.002522-17.048281-38.002522-38.002522s17.042141-38.002522 37.991266-38.002522l563.517327-0.379647L883.496989 393.229966c0-20.954241 17.048281-38.013779 38.002522-38.013779 10.320043 0 19.966751 3.961218 27.1565 11.144828 7.178493 7.205099 11.128455 16.754592 11.123338 26.901697l-0.520863 512.817622c-0.037862 30.026874-24.49795 54.485939-54.529941 54.518684C904.727523 960.599018 319.996035 960.957175 319.990918 960.957175z" p-id="8136"></path></svg>