<?xml version="1.0" encoding="UTF-8"?>
<svg width="20px" height="20px" viewBox="0 0 20 20" version="1.1" xmlns="http://www.w3.org/2000/svg" xmlns:xlink="http://www.w3.org/1999/xlink">
    <!-- Generator: Sketch 52.4 (67378) - http://www.bohemiancoding.com/sketch -->
    <title>TOP-MENU-全部路径icon-disable</title>
    <desc>Created with Sketch.</desc>
    <g id="Page-1" stroke="none" stroke-width="1" fill="none" fill-rule="evenodd">
        <g id="0.0控件库-copy" transform="translate(-1024.000000, -1696.000000)" fill="#9595AC" fill-rule="nonzero">
            <g id="TOP-MENU-全部路径icon-disable" transform="translate(1024.000000, 1696.000000)">
                <path d="M6.56176866,12.171217 L5.45609667,13.276889 C5.798805,13.76448 6,14.3587442 6,15 C6,16.6568542 4.65685425,18 3,18 C1.34314575,18 0,16.6568542 0,15 C0,13.3431458 1.34314575,12 3,12 C3.65456902,12 4.26017497,12.2096358 4.75334132,12.5654308 L5.85141994,11.4673522 C5.31804919,10.7876709 5,9.93097764 5,9 C5,8.18897825 5.24136861,7.43433117 5.65619064,6.80397394 L4.16551877,5.36444885 C3.72335926,5.75970488 3.1397416,6 2.5,6 C1.11928813,6 0,4.88071187 0,3.5 C0,2.11928813 1.11928813,1 2.5,1 C3.88071187,1 5,2.11928813 5,3.5 C5,3.87704809 4.91653022,4.23460077 4.76706093,4.55518777 L6.30700742,6.04229681 C7.01775309,5.39478772 7.96277274,5 9,5 C9.93097764,5 10.7876709,5.31804919 11.4673522,5.85141994 L13.4245594,3.89421273 C13.1564653,3.49591069 13,3.01622756 13,2.5 C13,1.11928813 14.1192881,0 15.5,0 C16.8807119,0 18,1.11928813 18,2.5 C18,3.88071187 16.8807119,5 15.5,5 C14.9971534,5 14.5289813,4.85154091 14.1369233,4.59606237 L12.171217,6.56176866 C12.6909375,7.23672397 13,8.08226928 13,9 C13,9.98702806 12.642501,10.8905578 12.0499247,11.5881675 L15.1823639,14.6131289 C15.686747,14.2284459 16.3166953,14 17,14 C18.6568542,14 20,15.3431458 20,17 C20,18.6568542 18.6568542,20 17,20 C15.3431458,20 14,18.6568542 14,17 C14,16.3874799 14.1835672,15.8178343 14.4986892,15.3430756 L11.3112939,12.2650437 C10.6585973,12.7279209 9.86107241,13 9,13 C8.08226928,13 7.23672397,12.6909375 6.56176866,12.171217 Z M9,12 C10.6568542,12 12,10.6568542 12,9 C12,7.34314575 10.6568542,6 9,6 C7.34314575,6 6,7.34314575 6,9 C6,10.6568542 7.34314575,12 9,12 Z M17,19 C18.1045695,19 19,18.1045695 19,17 C19,15.8954305 18.1045695,15 17,15 C15.8954305,15 15,15.8954305 15,17 C15,18.1045695 15.8954305,19 17,19 Z M3,17 C4.1045695,17 5,16.1045695 5,15 C5,13.8954305 4.1045695,13 3,13 C1.8954305,13 1,13.8954305 1,15 C1,16.1045695 1.8954305,17 3,17 Z M2.5,5 C3.32842712,5 4,4.32842712 4,3.5 C4,2.67157288 3.32842712,2 2.5,2 C1.67157288,2 1,2.67157288 1,3.5 C1,4.32842712 1.67157288,5 2.5,5 Z M15.5,4 C16.3284271,4 17,3.32842712 17,2.5 C17,1.67157288 16.3284271,1 15.5,1 C14.6715729,1 14,1.67157288 14,2.5 C14,3.32842712 14.6715729,4 15.5,4 Z" id="形状"></path>
            </g>
        </g>
    </g>
</svg>