<?xml version="1.0" standalone="no"?><!DOCTYPE svg PUBLIC "-//W3C//DTD SVG 1.1//EN" "http://www.w3.org/Graphics/SVG/1.1/DTD/svg11.dtd"><svg t="1614238856312" class="icon" viewBox="0 0 1024 1024" version="1.1" xmlns="http://www.w3.org/2000/svg" p-id="26433" xmlns:xlink="http://www.w3.org/1999/xlink" width="200" height="200"><defs><style type="text/css"></style></defs><path d="M548.571 884V438.858H475.43v445.144L373.286 781.857l-51.715 51.714L512 1024l190.43-190.43-51.716-51.713z" p-id="26434"></path><path d="M802.178 256.786C784.499 112.143 661.429 0 512 0S239.5 112.143 221.822 256.786C98 265 0 367.786 0 493.714 0 625 106.428 731.43 237.714 731.43h128v-73.143h-128c-90.75 0-164.571-73.822-164.571-164.572 0-86.213 67.428-158.25 153.536-163.927l60.392-4.036 7.356-60.107C307.857 155.893 401.357 73.143 512 73.143s204.144 82.75 217.57 192.5l7.357 60.106 60.392 4.036c86.11 5.68 153.538 77.716 153.538 163.93 0 90.75-73.821 164.57-164.571 164.57h-128v73.144h128C917.572 731.429 1024 625 1024 493.714c0-125.928-98-228.714-221.822-236.928z" p-id="26435"></path></svg>