<?xml version="1.0" standalone="no"?><!DOCTYPE svg PUBLIC "-//W3C//DTD SVG 1.1//EN" "http://www.w3.org/Graphics/SVG/1.1/DTD/svg11.dtd"><svg t="1614356029949" class="icon" viewBox="0 0 1024 1024" version="1.1" xmlns="http://www.w3.org/2000/svg" p-id="1157" xmlns:xlink="http://www.w3.org/1999/xlink" width="200" height="200"><defs><style type="text/css"></style></defs><path d="M838.4 352h-652.8V768a70.4 70.4 0 0 0 70.4 70.4h512a70.4 70.4 0 0 0 70.4-70.4V352z m-614.4 38.4h576V768a32 32 0 0 1-32 32H256l-2.0992-0.064A32 32 0 0 1 224 768V390.4z" fill="#6F6D6D" p-id="1158"></path><path d="M428.352 236.8H230.4a44.8 44.8 0 0 0-44.8 44.8v108.8h652.8V332.8l-0.064-2.7136A57.6 57.6 0 0 0 780.8 275.2H471.0784l-16.1024-24.1536a32 32 0 0 0-26.624-14.2464zM230.4 275.2h194.5216l25.6 38.4H780.8l1.8432 0.0896A19.2 19.2 0 0 1 800 332.8v19.2h-576V281.6a6.4 6.4 0 0 1 6.4-6.4z" fill="#6F6D6D" p-id="1159"></path><path d="M608 544a19.2 19.2 0 0 1 1.8432 38.3104l-1.8432 0.0896H422.4a19.2 19.2 0 0 1-1.8432-38.3104L422.4 544h185.6z" fill="#69C0FF" p-id="1160"></path></svg>