<?xml version="1.0" standalone="no"?><!DOCTYPE svg PUBLIC "-//W3C//DTD SVG 1.1//EN" "http://www.w3.org/Graphics/SVG/1.1/DTD/svg11.dtd"><svg t="1614232070385" class="icon" viewBox="0 0 1024 1024" version="1.1" xmlns="http://www.w3.org/2000/svg" p-id="18349" xmlns:xlink="http://www.w3.org/1999/xlink" width="200" height="200"><defs><style type="text/css"></style></defs><path d="M382.417455 798.72l24.110545-41.704727a348.113455 348.113455 0 0 0 86.946909 10.984727c141.963636 0 272.058182-84.433455 390.749091-256-67.956364-98.257455-139.682909-167.936-215.226182-209.547636l23.272727-40.354909c85.457455 47.383273 165.282909 126.510545 239.429819 236.916363l8.750545 12.986182-8.750545 12.986182c-128.930909 192.046545-275.223273 289.559273-438.225455 289.559273-37.888 0-74.938182-5.259636-111.057454-15.825455z m-90.624-38.446545c-84.340364-47.522909-163.234909-126.138182-236.544-235.287273L46.545455 512l8.704-12.986182C184.226909 306.967273 330.519273 209.454545 493.474909 209.454545c36.770909 0 72.704 4.980364 107.752727 14.894546l-24.157091 41.751273a348.16 348.16 0 0 0-83.595636-10.100364c-141.963636 0-272.011636 84.433455-390.749091 256 67.118545 97.000727 137.867636 166.167273 212.340364 207.918545l-23.272727 40.35491z m164.584727-89.6l24.808727-42.961455a116.363636 116.363636 0 0 0 106.356364-184.226909l24.762182-42.914909a162.909091 162.909091 0 0 1-155.927273 270.103273z m-84.107637-49.803637a162.909091 162.909091 0 0 1 154.903273-268.288l-25.041454 43.380364a116.363636 116.363636 0 0 0-104.820364 181.527273l-25.041455 43.380363zM679.656727 139.636364l40.308364 23.272727-418.909091 725.550545-40.308364-23.272727 418.909091-725.550545z" fill="#58657F" p-id="18350"></path></svg>