<?xml version="1.0" standalone="no"?><!DOCTYPE svg PUBLIC "-//W3C//DTD SVG 1.1//EN" "http://www.w3.org/Graphics/SVG/1.1/DTD/svg11.dtd"><svg t="1614231712171" class="icon" viewBox="0 0 1024 1024" version="1.1" xmlns="http://www.w3.org/2000/svg" p-id="12710" xmlns:xlink="http://www.w3.org/1999/xlink" width="200" height="200"><defs><style type="text/css"></style></defs><path d="M1007.232 542.08l-145.152 145.152a16 16 0 0 1-22.656 0l-22.656-22.656a16 16 0 0 1 0-22.656l97.984-97.92H544v370.752l97.92-97.92a16 16 0 0 1 22.656 0l22.656 22.656a16 16 0 0 1 0 22.592L542.08 1007.232C541.76 1006.528 524.416 1024 512 1024c-12.416 0-28.736-17.536-30.08-16.768L336.832 862.08a16 16 0 0 1 0-22.656l22.72-22.656a16 16 0 0 1 22.592 0l97.92 97.984V544H109.248l97.92 97.92a16 16 0 0 1 0 22.656l-22.592 22.656a16 16 0 0 1-22.656 0L16.768 542.08C17.536 541.76 0 524.416 0 512c0-12.416 17.536-28.736 16.832-30.08L161.92 336.832a16 16 0 0 1 22.656 0l22.656 22.72a16 16 0 0 1 0 22.592L109.248 480H480V109.248l-97.92 97.92a16 16 0 0 1-22.656 0l-22.656-22.592a16 16 0 0 1 0-22.656L481.92 16.768C482.24 17.536 499.584 0 512 0c12.416 0 28.736 17.536 30.08 16.832l145.152 145.088a16 16 0 0 1 0 22.656l-22.656 22.656a16 16 0 0 1-22.656 0L544 109.248V480h370.752l-97.92-97.92a16 16 0 0 1 0-22.656l22.656-22.656a16 16 0 0 1 22.592 0l145.152 145.152c-0.704 0.32 16.768 17.664 16.768 30.08 0 12.416-17.536 28.736-16.768 30.08z" p-id="12711"></path></svg>