<?xml version="1.0" standalone="no"?><!DOCTYPE svg PUBLIC "-//W3C//DTD SVG 1.1//EN" "http://www.w3.org/Graphics/SVG/1.1/DTD/svg11.dtd"><svg t="1614231848697" class="icon" viewBox="0 0 1024 1024" version="1.1" xmlns="http://www.w3.org/2000/svg" p-id="15177" xmlns:xlink="http://www.w3.org/1999/xlink" width="200" height="200"><defs><style type="text/css"></style></defs><path d="M740.4 322.7c12.5-11.9 32.2-11.5 44.2 0.9 11.9 12.5 11.5 32.2-0.9 44.2L414.2 722 240.3 555.4c-12.5-11.9-12.9-31.7-0.9-44.2 11.9-12.5 31.7-12.9 44.2-0.9l130.6 125.1 326.2-312.7z" p-id="15178"></path><path d="M512 960C264.6 960 64 759.4 64 512S264.6 64 512 64s448 200.6 448 448-200.6 448-448 448z m0-62.5c212.9 0 385.5-172.6 385.5-385.5S724.9 126.5 512 126.5 126.5 299.1 126.5 512 299.1 897.5 512 897.5z" p-id="15179"></path></svg>