<?xml version="1.0" encoding="UTF-8"?>
<svg width="20px" height="20px" viewBox="0 0 20 20" version="1.1" xmlns="http://www.w3.org/2000/svg" xmlns:xlink="http://www.w3.org/1999/xlink">
    <!-- Generator: Sketch 52.4 (67378) - http://www.bohemiancoding.com/sketch -->
    <title>TOP-MENU-最短路径icon-disable</title>
    <desc>Created with Sketch.</desc>
    <g id="Page-1" stroke="none" stroke-width="1" fill="none" fill-rule="evenodd">
        <g id="0.0控件库-copy" transform="translate(-984.000000, -1696.000000)" fill="#9595AC" fill-rule="nonzero">
            <g id="TOP-MENU-最短路径icon-disable" transform="translate(984.000000, 1696.000000)">
                <path d="M19,10.5108616 C19,10.7878377 18.7754665,11.0123711 18.4984905,11.0123711 L14.9971313,11.0123711 C14.2874831,11.0123711 14,11.5718689 14,11.9999695 L14,13 C14,13.7527161 14.461731,14 14.9971313,14 L18.5546678,14 C19.8292847,14 20,14.7108063 20,15.4160156 L20,18.5549264 C20,19.7529152 19.4306641,20 18.5546678,20 L4,20 L4,18.9999861 L18.0083923,19 C18.4947838,19 19,18.6867065 19,18 L19,16 C19,15.175293 18.8131839,15 18.0083923,14.9989048 L14.3834766,15.0048515 C13.4499861,15.0008136 13.0010071,14.6270198 13.0005148,13.6058017 C13.0010071,12.8991199 13.0010071,11.8640125 13.0005148,11.4010718 C13.0010071,10.4201813 13.2639771,10.0093521 14.3834766,10.0000611 L18.4984915,10.0083428 C18.7756301,10.0089006 19,10.2337225 19,10.5108616 Z M6.11010165,15.9964496 C7.79926194,14.0966121 8.72048262,12.8957912 9.44930821,11.53814 C9.83968497,10.634255 10,10.0561392 10,9.42538785 C10,7.66170399 8.84255887,5.93746572 7.26582735,5.33984667 C5.4824794,4.65164763 3.59460529,5.0189767 2.2899698,6.33235723 C0.951334812,7.67996517 0.636009507,9.40383502 1.4343397,11.1093102 C2.23916569,12.8563488 3.28311974,14.1999855 5.52265803,16.61177 L5.54202834,16.6326239 C5.77892576,16.3674906 6.023143,16.094254 6.11010165,15.9964496 Z M11,9.42538785 C11,10.334674 10.718821,11.1208216 10.3673474,11.9346297 C9.17233679,14.1726022 7.48526306,15.9485252 5.79818933,17.847411 C5.58730512,18.050863 5.51701038,18.050863 5.30612616,17.847411 C3.47846295,15.8807079 1.65079975,13.9691502 0.526083925,11.5277256 C-0.458042418,9.42538785 -0.0362739851,7.25523271 1.58050501,5.62761636 C3.197284,4 5.51701038,3.59309591 7.62585254,4.40690409 C9.59410522,5.15289492 11,7.25523271 11,9.42538785 Z M5.47749939,8.00187046 L5.42647059,8.00317328 C4.62106689,8.00317328 4,8.65742647 4,9.50158664 C4,10.291952 4.71503509,11 5.5,11 C6.32873986,11 7,10.3217339 7.00132366,9.55302174 C6.95382653,8.63080596 6.27740957,7.96099875 5.47749939,8.00187046 Z M5.42647059,7.00317328 C6.82352941,6.93179004 7.92647059,8.07392186 8,9.50158664 C8,10.8578682 6.89705882,12 5.5,12 C4.17647059,12 3,10.8578682 3,9.50158664 C3,8.1453051 4.02941176,7.00317328 5.42647059,7.00317328 Z M16.5647046,9.17915579 C16.5329898,9.1472818 16.4994972,9.11758955 16.4585485,9.09190617 L16.5647046,9.17915579 Z M16.2758348,8.34752318 C16.4569719,8.16506503 17.0962572,7.53971781 17.0354211,7.59969831 C17.8463504,6.80017292 18.2692642,6.28105343 18.6106155,5.6219182 C18.9330283,4.84423848 19.0227655,4.52858157 18.9963416,4.1833471 L18.9934253,4.10703151 C18.9934253,2.86222238 18.2105529,1.64730609 17.1685202,1.23586014 C15.9831746,0.759341428 14.7409894,1.01112399 13.8722303,1.9222066 C12.9657666,2.87283067 12.7531058,4.08395851 13.2968556,5.29406408 C13.6681346,6.13363582 14.1335709,6.73254866 15.0347738,7.62566042 C15.1344839,7.72447533 15.6403969,8.21870056 15.7871133,8.36461321 C15.871362,8.4484004 15.9516031,8.52910708 16.0249446,8.6044753 C16.1054484,8.52050386 16.1888004,8.43519232 16.2758348,8.34752318 Z M19.9934253,4.10703151 C20.0445068,4.77442413 19.7890996,5.39047886 19.5336925,6.00653358 C18.6653081,7.70068408 17.4393538,8.44702871 16.2133994,9.88448974 C16.0601551,10.0385034 16.0090737,10.0385034 15.8558294,9.88448974 C14.5277122,8.39569082 13.199595,7.5466704 12.3822921,5.69850622 C11.667152,4.10703151 11.9736406,2.46421891 13.1485135,1.23210945 C14.3233864,-4.4408921e-16 16.0090737,-0.308027363 17.5415166,0.308027363 C18.9717967,0.872744196 19.9934253,2.46421891 19.9934253,4.10703151 Z M15.9922053,3.0012358 L15.9411765,3.00253862 C15.4097059,3.00253862 15,3.43413686 15,4.00126931 C15,4.52266265 15.4820478,5 16,5 C16.5520674,5 17,4.54739235 17.0013237,4.05270441 C16.9688036,3.42128695 16.5175022,2.97439556 15.9922053,3.0012358 Z M15.9411765,2.00253862 C17.0588235,1.94543203 17.9411765,2.85913749 18,4.00126931 C18,5.08629454 17.1176471,6 16,6 C14.9411765,6 14,5.08629454 14,4.00126931 C14,2.91624408 14.8235294,2.00253862 15.9411765,2.00253862 Z" id="形状"></path>
            </g>
        </g>
    </g>
</svg>