<?xml version="1.0" standalone="no"?><!DOCTYPE svg PUBLIC "-//W3C//DTD SVG 1.1//EN" "http://www.w3.org/Graphics/SVG/1.1/DTD/svg11.dtd"><svg t="1614232082429" class="icon" viewBox="0 0 1024 1024" version="1.1" xmlns="http://www.w3.org/2000/svg" p-id="19098" xmlns:xlink="http://www.w3.org/1999/xlink" width="200" height="200"><defs><style type="text/css"></style></defs><path d="M512 236c178.2 0 337.7 113.2 387.9 275.3 0.1 0.5 0.1 0.9 0 1.4C849.7 674.8 690.2 788 512 788S174.3 674.8 124.1 512.7c-0.1-0.5-0.1-0.9 0-1.4C174.3 349.2 333.8 236 512 236m0-60c-210.5 0-388.3 134-445.2 317.6-3.7 12-3.7 24.9 0 36.9C123.7 714 301.5 848 512 848s388.3-134 445.2-317.6c3.7-12 3.7-24.9 0-36.9C900.3 310 722.5 176 512 176z" p-id="19099"></path><path d="M512 410c56.2 0 102 45.8 102 102s-45.8 102-102 102-102-45.8-102-102 45.8-102 102-102m0-68c-93.9 0-170 76.1-170 170s76.1 170 170 170 170-76.1 170-170-76.1-170-170-170z" p-id="19100"></path></svg>