<?xml version="1.0" standalone="no"?><!DOCTYPE svg PUBLIC "-//W3C//DTD SVG 1.1//EN" "http://www.w3.org/Graphics/SVG/1.1/DTD/svg11.dtd"><svg t="1614224152794" class="icon" viewBox="0 0 1024 1024" version="1.1" xmlns="http://www.w3.org/2000/svg" p-id="1652" xmlns:xlink="http://www.w3.org/1999/xlink" width="200" height="200"><defs><style type="text/css"></style></defs><path d="M630.272 439.808H331.264c-16.384 0-29.696 14.336-29.696 31.744 0 17.92 13.312 32.256 29.696 32.256h299.008c16.384 0 29.696-14.336 29.696-31.744 0-17.408-13.312-31.744-29.696-32.256z" fill="#2C2C2C" p-id="1653"></path><path d="M929.28 880.64l-165.376-165.376 2.56-3.072c56.832-67.072 87.552-152.576 87.552-240.128 0-205.824-167.424-373.76-373.76-373.76-205.824 0-373.76 167.424-373.76 373.76 0 205.824 167.424 373.76 373.76 373.76 84.992 0 168.448-29.696 234.496-83.456l3.072-2.56 165.888 165.888c6.656 6.656 15.36 9.728 23.552 9.216h1.024c16.384 0 29.696-13.312 29.696-29.696v-0.512c1.024-8.704-2.048-17.408-8.704-24.064z m-448.512-98.304c-171.008 0-310.272-139.264-310.272-310.272 0-171.008 139.264-310.272 310.272-310.272 171.008 0 310.272 139.264 310.272 310.272 0 171.008-139.264 310.272-310.272 310.272z" fill="#2C2C2C" p-id="1654"></path></svg>