<?xml version="1.0" standalone="no"?><!DOCTYPE svg PUBLIC "-//W3C//DTD SVG 1.1//EN" "http://www.w3.org/Graphics/SVG/1.1/DTD/svg11.dtd"><svg t="1614221886478" class="icon" viewBox="0 0 1027 1024" version="1.1" xmlns="http://www.w3.org/2000/svg" p-id="4866" xmlns:xlink="http://www.w3.org/1999/xlink" width="200.5859375" height="200"><defs><style type="text/css"></style></defs><path d="M722.488889 642.844444c45.511111-62.577778 73.955556-136.533333 73.955555-216.177777C796.444444 221.866667 631.466667 56.888889 426.666667 56.888889S56.888889 221.866667 56.888889 426.666667 221.866667 796.444444 426.666667 796.444444c79.644444 0 153.6-28.444444 216.177777-68.266666l221.866667 221.866666c22.755556 22.755556 56.888889 22.755556 79.644445 0 22.755556-22.755556 22.755556-56.888889 0-79.644444l-221.866667-227.555556zM455.111111 739.555556c-170.666667 0-341.333333-142.222222-341.333333-312.888889S256 113.777778 426.666667 113.777778 739.555556 256 739.555556 426.666667 597.333333 739.555556 426.666667 739.555556" fill="#2c2c2c" p-id="4867"></path><path d="M227.555556 398.222222h398.222222v56.888889H227.555556z" fill="#2c2c2c" p-id="4868"></path><path d="M398.222222 227.555556h56.888889v398.222222H398.222222z" fill="#2c2c2c" p-id="4869"></path></svg>