<?xml version="1.0" standalone="no"?><!DOCTYPE svg PUBLIC "-//W3C//DTD SVG 1.1//EN" "http://www.w3.org/Graphics/SVG/1.1/DTD/svg11.dtd"><svg t="1614232868268" class="icon" viewBox="0 0 1024 1024" version="1.1" xmlns="http://www.w3.org/2000/svg" p-id="21082" xmlns:xlink="http://www.w3.org/1999/xlink" width="200" height="200"><defs><style type="text/css"></style></defs><path d="M360.594286 318.902857L104.594286 59.245714H256c20.48 0 36.571429-9.508571 36.571429-29.988571S276.48 0 256 0H73.142857a73.142857 73.142857 0 0 0-73.142857 73.142857v182.857143c0 20.48 10.24 36.571429 29.257143 36.571429s29.988571-16.091429 29.988571-36.571429V104.594286l258.925715 256c14.628571 13.897143 32.914286 19.017143 46.811428 5.12a32.182857 32.182857 0 0 0-4.388571-46.811429zM661.942857 318.902857c-13.897143 14.628571-19.017143 32.914286-4.388571 46.811429s32.182857 8.777143 46.08-5.12l259.657143-256V256c0 20.48 10.971429 36.571429 29.257142 36.571429s29.988571-16.091429 29.988572-36.571429V73.142857a73.142857 73.142857 0 0 0-73.142857-73.142857h-182.857143c-20.48 0-36.571429 8.777143-36.571429 29.257143s16.091429 29.988571 36.571429 29.988571h150.674286L661.942857 318.902857zM360.594286 705.097143A32.182857 32.182857 0 0 0 365.714286 658.285714c-13.897143-13.897143-32.182857-9.508571-46.811429 5.12l-259.657143 256V768c0-20.48-10.971429-36.571429-29.988571-36.571429s-29.257143 16.091429-29.257143 36.571429V950.857143a73.142857 73.142857 0 0 0 73.142857 73.142857h182.857143c20.48 0 36.571429-9.508571 36.571429-29.988571s-16.091429-29.257143-36.571429-29.257143H104.594286l256-259.657143zM661.942857 705.097143l255.268572 259.657143h-150.674286c-20.48 0-36.571429 8.777143-36.571429 29.257143s16.091429 29.988571 36.571429 29.988571H950.857143a73.142857 73.142857 0 0 0 73.142857-73.142857v-182.857143c0-20.48-10.971429-36.571429-29.988571-36.571429s-29.257143 16.091429-29.257143 36.571429v151.405714l-261.12-256A30.72 30.72 0 0 0 658.285714 658.285714c-14.628571 13.897143-9.508571 32.182857 4.388572 46.811429z" fill="" p-id="21083"></path></svg>