<?xml version="1.0" standalone="no"?><!DOCTYPE svg PUBLIC "-//W3C//DTD SVG 1.1//EN" "http://www.w3.org/Graphics/SVG/1.1/DTD/svg11.dtd"><svg t="1614237958395" class="icon" viewBox="0 0 1024 1024" version="1.1" xmlns="http://www.w3.org/2000/svg" p-id="22429" xmlns:xlink="http://www.w3.org/1999/xlink" width="200" height="200"><defs><style type="text/css"></style></defs><path d="M844.8 704c-12.8-12.8-32-12.8-51.2-12.8-57.6 0-102.4 44.8-102.4 102.4 0 19.2 6.4 38.4 12.8 51.2-32 12.8-64 32-96 38.4-12.8-38.4-51.2-64-96-64-38.4 0-83.2 25.6-96 64-38.4-12.8-64-19.2-96-38.4 12.8-12.8 12.8-32 12.8-51.2 0-57.6-44.8-102.4-102.4-102.4-19.2 0-38.4 6.4-51.2 12.8-12.8-32-32-64-38.4-96 38.4-12.8 64-57.6 64-96s-25.6-83.2-64-89.6c12.8-38.4 25.6-70.4 44.8-102.4 12.8 12.8 32 12.8 51.2 12.8 57.6 0 102.4-44.8 102.4-102.4 0-19.2-6.4-38.4-12.8-51.2 32-12.8 64-32 96-38.4 12.8 38.4 51.2 64 89.6 64s83.2-25.6 96-64c38.4 12.8 64 19.2 96 38.4-12.8 12.8-12.8 32-12.8 51.2 0 57.6 44.8 102.4 102.4 102.4 19.2 0 38.4-6.4 51.2-12.8 12.8 32 32 64 38.4 96-38.4 12.8-64 57.6-64 96s25.6 83.2 64 89.6c-6.4 38.4-25.6 76.8-38.4 102.4z m89.6-294.4c-12.8-44.8-32-89.6-57.6-128 12.8-12.8 19.2-38.4 19.2-51.2 0-57.6-44.8-102.4-102.4-102.4-19.2 0-38.4 6.4-51.2 12.8-38.4-25.6-83.2-38.4-128-57.6C608 38.4 563.2 0 512 0S422.4 38.4 409.6 89.6c-44.8 12.8-89.6 25.6-128 51.2-12.8-6.4-38.4-12.8-51.2-12.8C172.8 128 128 172.8 128 230.4c0 19.2 6.4 38.4 12.8 51.2-25.6 38.4-38.4 83.2-51.2 128C38.4 422.4 0 460.8 0 512s38.4 89.6 89.6 102.4c12.8 44.8 32 89.6 57.6 128-12.8 12.8-19.2 38.4-19.2 51.2 0 57.6 44.8 102.4 102.4 102.4 19.2 0 38.4-6.4 51.2-12.8 38.4 25.6 83.2 38.4 128 57.6 6.4 44.8 51.2 83.2 102.4 83.2s89.6-38.4 102.4-89.6c44.8-12.8 89.6-32 128-57.6 12.8 12.8 38.4 12.8 51.2 12.8 57.6 0 102.4-44.8 102.4-102.4 0-19.2-6.4-38.4-12.8-51.2 25.6-38.4 38.4-83.2 57.6-128 44.8 0 83.2-44.8 83.2-96s-38.4-89.6-89.6-102.4z" p-id="22430"></path></svg>