<?xml version="1.0" standalone="no"?><!DOCTYPE svg PUBLIC "-//W3C//DTD SVG 1.1//EN" "http://www.w3.org/Graphics/SVG/1.1/DTD/svg11.dtd"><svg t="1614237915229" class="icon" viewBox="0 0 1024 1024" version="1.1" xmlns="http://www.w3.org/2000/svg" p-id="21327" xmlns:xlink="http://www.w3.org/1999/xlink" width="200" height="200"><defs><style type="text/css"></style></defs><path d="M869.001192 292.854531L797.718245 358.506508c13.693492 31.354258 21.308098 65.971919 21.308098 102.381252 0 48.631094-13.565516 94.062775-37.113203 132.775685l63.092446 55.029923a102.381251 102.381251 0 1 1-23.803641 47.159364l-70.195146-61.236786A255.313246 255.313246 0 0 1 563.137203 716.840889c-30.90634 0-60.468927-5.439004-87.9199-15.485165l-66.419837 131.11199a102.381251 102.381251 0 1 1-50.678719-13.245574l71.026993-140.198326a256.209082 256.209082 0 0 1-117.738439-171.488596H194.180768V506.31944a102.381251 102.381251 0 1 1 10.494078-49.974848h102.573217a255.313246 255.313246 0 0 1 83.184766-184.286253L298.865598 195.464366a102.381251 102.381251 0 1 1 40.184641-33.145931L432.601107 240.640093A254.737351 254.737351 0 0 1 563.137203 204.934631c86.128228 0 162.338272 42.552208 208.729776 107.820256l61.10881-56.309689a102.381251 102.381251 0 1 1 36.025403 36.473321zM563.137203 665.650263a204.762503 204.762503 0 1 0 0-409.525006 204.762503 204.762503 0 0 0 0 409.525006zM255.993449 153.744006A51.190626 51.190626 0 1 0 255.993449 51.362754a51.190626 51.190626 0 0 0 0 102.381252zM102.421571 512.078386a51.190626 51.190626 0 1 0 0-102.381252 51.190626 51.190626 0 0 0 0 102.381252z m255.953129 460.715631a51.190626 51.190626 0 1 0 0-102.381251 51.190626 51.190626 0 0 0 0 102.381251z m563.096883-204.762503a51.190626 51.190626 0 1 0 0-102.381251 51.190626 51.190626 0 0 0 0 102.381251z m0-511.906257a51.190626 51.190626 0 1 0 0-102.381251 51.190626 51.190626 0 0 0 0 102.381251z" fill="#333333" p-id="21328"></path></svg>