<?xml version="1.0" standalone="no"?><!DOCTYPE svg PUBLIC "-//W3C//DTD SVG 1.1//EN" "http://www.w3.org/Graphics/SVG/1.1/DTD/svg11.dtd"><svg t="1614237928578" class="icon" viewBox="0 0 1442 1024" version="1.1" xmlns="http://www.w3.org/2000/svg" p-id="21551" xmlns:xlink="http://www.w3.org/1999/xlink" width="281.640625" height="200"><defs><style type="text/css"></style></defs><path d="M1290.588973 475.268365c-10.141135 8.586654-245.089767 205.413502-558.502655-7.920449a645.775635 645.775635 0 0 0-264.187672-109.849959 501.208944 501.208944 0 0 0-209.558783 11.769639A486.256322 486.256322 0 0 0 68.767259 468.680328a49.743378 49.743378 0 0 0-15.840897 36.493282 51.001767 51.001767 0 0 0 14.804576 37.011441 49.743378 49.743378 0 0 0 36.493282 15.840897 51.001767 51.001767 0 0 0 37.011442-14.804576 368.1158 368.1158 0 0 1 149.896339-76.169547 469.601173 469.601173 0 0 1 382.920376 85.718499 618.239123 618.239123 0 0 0 344.798591 115.919835h3.405053a556.874152 556.874152 0 0 0 337.174234-115.549721 51.816018 51.816018 0 0 0 5.107579-73.356677 53.518545 53.518545 0 0 0-73.948861-4.515396zM202.822701 855.671963a387.065658 387.065658 0 0 1 85.718499-33.014206 461.680724 461.680724 0 0 1 383.216468 85.422407 618.461191 618.461191 0 0 0 341.615607 115.919836h6.662059a554.135306 554.135306 0 0 0 337.174235-115.549721 52.11211 52.11211 0 0 0-68.249099-78.760348c-9.845044 8.586654-244.793676 205.11741-558.502656-7.920449-247.97666-168.624129-451.539589-119.398911-565.164715-63.215542L160.18552 654.403743l-160.333566 267.666746 313.338866 11.103433z m1028.103828-691.817869a463.087159 463.087159 0 0 1-497.211708-47.966829A647.478162 647.478162 0 0 0 469.52715 6.037306 501.208944 501.208944 0 0 0 259.968367 17.806945 487.736779 487.736779 0 0 0 70.395762 117.219677a52.186133 52.186133 0 0 0 72.098289 75.429319 362.712129 362.712129 0 0 1 152.413117-77.798051 464.863708 464.863708 0 0 1 380.403598 86.976888 617.424871 617.424871 0 0 0 344.798591 115.919836h3.479076a556.207946 556.207946 0 0 0 252.418032-61.587039L1281.706227 370.15587l160.333566-267.370655-313.338866-11.103432z" p-id="21552"></path></svg>