<?xml version="1.0" standalone="no"?><!DOCTYPE svg PUBLIC "-//W3C//DTD SVG 1.1//EN" "http://www.w3.org/Graphics/SVG/1.1/DTD/svg11.dtd"><svg t="1614237942830" class="icon" viewBox="0 0 1024 1024" version="1.1" xmlns="http://www.w3.org/2000/svg" p-id="21908" xmlns:xlink="http://www.w3.org/1999/xlink" width="200" height="200"><defs><style type="text/css"></style></defs><path d="M947.2 825.6V608c44.8-6.4 76.8-51.2 76.8-96 0-57.6-44.8-102.4-102.4-102.4-44.8 0-89.6 32-96 76.8H608c-6.4-38.4-32-64-70.4-70.4V198.4c44.8-6.4 76.8-51.2 76.8-96C614.4 44.8 569.6 0 512 0S409.6 44.8 409.6 102.4c0 44.8 32 89.6 76.8 96v211.2c-38.4 12.8-64 38.4-70.4 76.8H198.4c-6.4-44.8-51.2-76.8-96-76.8C44.8 409.6 0 454.4 0 512c0 44.8 32 89.6 76.8 96v211.2c-44.8 12.8-76.8 57.6-76.8 102.4 0 57.6 44.8 102.4 102.4 102.4s102.4-44.8 102.4-102.4c0-44.8-32-89.6-76.8-96V608c38.4-6.4 64-32 70.4-70.4h211.2c12.8 38.4 38.4 64 76.8 70.4v211.2c-44.8 12.8-76.8 51.2-76.8 96 0 64 44.8 108.8 102.4 108.8s102.4-44.8 102.4-102.4c0-44.8-32-89.6-76.8-96V608c38.4-6.4 64-32 70.4-70.4h211.2c12.8 38.4 38.4 64 76.8 70.4v211.2c-44.8 12.8-76.8 51.2-76.8 96 0 57.6 44.8 102.4 102.4 102.4 57.6 0 102.4-44.8 102.4-102.4 0-38.4-32-83.2-76.8-89.6z" p-id="21909"></path></svg>